<svg xmlns="http://www.w3.org/2000/svg" width="214" height="24" fill="none" viewBox="0 0 214 24"><path fill="#111" d="M5.914 18.216q-1.026 0-1.998-.198a9 9 0 0 1-1.746-.504 7 7 0 0 1-1.314-.702l1.188-2.25q.594.414 1.26.72.684.288 1.422.45a7.7 7.7 0 0 0 1.476.144q.81 0 1.386-.18.594-.18.9-.504.324-.324.324-.792a.85.85 0 0 0-.342-.702q-.342-.27-.9-.45-.54-.198-1.206-.378t-1.35-.414a6.5 6.5 0 0 1-1.224-.612 3.05 3.05 0 0 1-.882-.954q-.342-.576-.342-1.44 0-1.296.702-2.25.72-.954 2.016-1.476 1.296-.54 3.042-.54 1.278 0 2.412.288 1.134.27 1.944.792l-1.098 2.232a5.2 5.2 0 0 0-1.602-.72 6.6 6.6 0 0 0-1.818-.252q-.846 0-1.458.198-.594.198-.918.558a1.15 1.15 0 0 0-.306.792q0 .45.324.738.342.27.9.468.558.18 1.224.36t1.332.414 1.224.594.9.918q.342.54.342 1.368 0 1.296-.72 2.268-.72.954-2.034 1.494-1.296.522-3.06.522M12.461 18l2.52-12.6h2.934L15.395 18Zm5.366 0 2.52-12.6h2.376l3.582 8.928-1.26-.018 6.984-8.91h2.502L32.029 18h-2.736l1.674-8.442h.558l-5.562 7.11h-1.296l-2.97-7.128.54.054L20.563 18Zm16.651 0 2.52-12.6h5.094q2.358 0 3.636 1.044 1.296 1.026 1.296 2.88 0 1.584-.738 2.772-.738 1.17-2.124 1.8-1.368.63-3.258.63h-4.086l1.548-1.332L37.412 18Zm3.816-4.464-1.026-1.386h3.762q1.44 0 2.232-.648.81-.666.81-1.926 0-.918-.612-1.35-.612-.45-1.728-.45h-3.546l1.548-1.422ZM46.946 18l2.52-12.6H52.4l-2.052 10.224h6.318L56.18 18ZM59.1 18l1.026-5.184.325 1.836L56.741 5.4h2.916l2.826 7.074-1.764.018L66.428 5.4h3.006l-7.38 9.27.99-1.854L62.016 18Zm20.052.216a7.8 7.8 0 0 1-2.718-.468 6.5 6.5 0 0 1-2.16-1.368 6.4 6.4 0 0 1-1.44-2.07q-.504-1.188-.504-2.61t.504-2.61a6.4 6.4 0 0 1 1.44-2.07 6.5 6.5 0 0 1 2.178-1.35q1.242-.486 2.718-.486 1.638 0 2.952.576a5.7 5.7 0 0 1 2.232 1.656l-1.872 1.728q-.648-.738-1.44-1.098a3.96 3.96 0 0 0-1.728-.378 4.4 4.4 0 0 0-1.62.288 3.7 3.7 0 0 0-1.278.828q-.54.54-.846 1.278a4.5 4.5 0 0 0-.288 1.638q0 .9.288 1.638.306.738.846 1.278t1.278.828a4.4 4.4 0 0 0 1.62.288q.936 0 1.728-.36.792-.378 1.44-1.134l1.872 1.728a5.84 5.84 0 0 1-2.232 1.674q-1.314.576-2.97.576M94.423 5.4h2.916V18h-2.916ZM88.7 18h-2.916V5.4H88.7Zm5.94-5.166h-6.156v-2.466h6.156Zm11.261 5.382q-1.494 0-2.772-.486a6.7 6.7 0 0 1-2.196-1.368 6.4 6.4 0 0 1-1.44-2.07 6.6 6.6 0 0 1-.504-2.592q0-1.404.505-2.592a6.3 6.3 0 0 1 1.457-2.07 6.7 6.7 0 0 1 2.196-1.368 7.5 7.5 0 0 1 2.736-.486q1.494 0 2.736.486 1.26.486 2.178 1.368a6.3 6.3 0 0 1 1.458 2.07q.522 1.17.522 2.592a6.5 6.5 0 0 1-.522 2.61 6.3 6.3 0 0 1-1.458 2.07 6.6 6.6 0 0 1-2.178 1.35q-1.242.486-2.718.486m-.018-2.484q.846 0 1.548-.288.72-.288 1.26-.828t.828-1.278a4.2 4.2 0 0 0 .306-1.638q0-.9-.306-1.638a3.7 3.7 0 0 0-.828-1.278 3.5 3.5 0 0 0-1.242-.828 4.2 4.2 0 0 0-1.566-.288q-.846 0-1.566.288a3.8 3.8 0 0 0-1.242.828q-.54.54-.846 1.278a4.5 4.5 0 0 0-.288 1.638q0 .882.288 1.638.306.738.828 1.278.54.54 1.26.828t1.566.288m14.576 2.484a7.8 7.8 0 0 1-2.718-.468 6.5 6.5 0 0 1-2.16-1.368 6.4 6.4 0 0 1-1.44-2.07q-.504-1.188-.504-2.61t.504-2.61a6.4 6.4 0 0 1 1.44-2.07 6.5 6.5 0 0 1 2.178-1.35q1.242-.486 2.718-.486 1.638 0 2.952.576a5.7 5.7 0 0 1 2.232 1.656l-1.872 1.728q-.648-.738-1.44-1.098a3.96 3.96 0 0 0-1.728-.378 4.4 4.4 0 0 0-1.62.288 3.7 3.7 0 0 0-1.278.828q-.54.54-.846 1.278a4.5 4.5 0 0 0-.288 1.638q0 .9.288 1.638.306.738.846 1.278t1.278.828a4.4 4.4 0 0 0 1.62.288q.936 0 1.728-.36.792-.378 1.44-1.134l1.872 1.728a5.84 5.84 0 0 1-2.232 1.674q-1.314.576-2.97.576m12.487 0q-1.494 0-2.772-.486a6.7 6.7 0 0 1-2.196-1.368 6.4 6.4 0 0 1-1.44-2.07 6.6 6.6 0 0 1-.504-2.592q0-1.404.504-2.592a6.3 6.3 0 0 1 1.458-2.07 6.7 6.7 0 0 1 2.196-1.368 7.5 7.5 0 0 1 2.736-.486q1.494 0 2.736.486 1.26.486 2.178 1.368a6.3 6.3 0 0 1 1.458 2.07q.522 1.17.522 2.592a6.5 6.5 0 0 1-.522 2.61 6.3 6.3 0 0 1-1.458 2.07 6.6 6.6 0 0 1-2.178 1.35q-1.242.486-2.718.486m-.018-2.484q.846 0 1.548-.288.72-.288 1.26-.828t.828-1.278a4.2 4.2 0 0 0 .306-1.638q0-.9-.306-1.638a3.7 3.7 0 0 0-.828-1.278 3.5 3.5 0 0 0-1.242-.828 4.2 4.2 0 0 0-1.566-.288q-.846 0-1.566.288a3.8 3.8 0 0 0-1.242.828q-.54.54-.846 1.278a4.5 4.5 0 0 0-.288 1.638q0 .882.288 1.638.306.738.828 1.278.54.54 1.26.828t1.566.288M141.473 18V5.4h2.916v10.224h6.318V18Zm8.738 0 5.616-12.6h2.88l5.634 12.6h-3.06l-4.608-11.124h1.152L153.199 18Zm2.808-2.7.774-2.214h6.48l.792 2.214Zm14.066 2.7V7.776h-4.032V5.4h10.98v2.376h-4.032V18Zm10.659-7.524h6.066v2.268h-6.066Zm.216 5.184h6.858V18h-9.756V5.4h9.522v2.34h-6.624Z"/><path fill="#fcf1e0" d="m192.958 15.057 8.083-13.068.48-.506 6.176 4.118.043 2.486 1.507 2.46-6.66 10.557Z"/><path stroke="#fd9222" stroke-linecap="round" stroke-linejoin="round" stroke-width="2" d="m206.226 17.91-10.639-6.648m2.934-4.813 10.639 6.648m-11.188 6.301 8.802-14.437m3.608 6.13c-2.28-1.424-3.175-2.537-1.708-4.943l-7.219-4.512-8.802 14.438 10.639 6.648Z"/></svg>